<?xml version="1.0" encoding="UTF-8" standalone="no"?>
<!-- Created with Inkscape (http://www.inkscape.org/) -->

<svg
   width="512"
   height="512"
   viewBox="0 0 512 512"
   version="1.1"
   id="svg1"
   xml:space="preserve"
   sodipodi:docname="jerry-about.svg"
   inkscape:version="1.4 (e7c3feb100, 2024-10-09)"
   xmlns:inkscape="http://www.inkscape.org/namespaces/inkscape"
   xmlns:sodipodi="http://sodipodi.sourceforge.net/DTD/sodipodi-0.dtd"
   xmlns="http://www.w3.org/2000/svg"
   xmlns:svg="http://www.w3.org/2000/svg"><sodipodi:namedview
     id="namedview1"
     pagecolor="#ffffff"
     bordercolor="#000000"
     borderopacity="0.25"
     inkscape:showpageshadow="2"
     inkscape:pageopacity="0.0"
     inkscape:pagecheckerboard="0"
     inkscape:deskcolor="#d1d1d1"
     inkscape:document-units="px"
     inkscape:zoom="0.63943445"
     inkscape:cx="64.11916"
     inkscape:cy="341.70821"
     inkscape:window-width="1366"
     inkscape:window-height="712"
     inkscape:window-x="0"
     inkscape:window-y="0"
     inkscape:window-maximized="1"
     inkscape:current-layer="layer1" /><defs
     id="defs1" /><g
     inkscape:label="Capa 1"
     inkscape:groupmode="layer"
     id="layer1"><g
       inkscape:label="Capa 1"
       id="layer1-5"
       transform="matrix(0.74025019,0,0,0.74025019,4.9993243,44.968935)"><path
         style="fill:#c2c9b2;fill-opacity:1;stroke-width:4.29881;stroke-dasharray:34.3905, 4.29881"
         d="m 367.4201,445.83625 69.50833,40.29469 -7.05157,-77.56727 z"
         id="path3" /><path
         style="fill:#c2c9b2;fill-opacity:1;stroke-width:4.29881;stroke-dasharray:34.3905, 4.29881"
         d="m 154.13342,419.40958 -39.17739,60.54687 85.47793,-19.94486 z"
         id="path4" /><circle
         style="fill:#4e5c33;fill-opacity:1;stroke-width:5.9774;stroke-dasharray:47.8192, 5.9774"
         id="path1"
         cx="283.06268"
         cy="278.37103"
         r="207.99631" /><circle
         style="fill:#819b48;fill-opacity:0.787782;stroke-width:4.94867;stroke-dasharray:39.5893, 4.94867"
         id="circle1"
         cx="278.78879"
         cy="253.97107"
         r="172.19933" /><circle
         style="fill:#c2c9b2;fill-opacity:0.787782;stroke-width:4.51835;stroke-dasharray:36.1468, 4.51835"
         id="circle2"
         cx="278.78879"
         cy="253.97107"
         r="157.22545" /><circle
         style="fill:#283700;fill-opacity:0.787782;stroke-width:2.36675;stroke-dasharray:18.9339, 2.36675"
         id="circle3"
         cx="279.50323"
         cy="251.83195"
         r="82.356194" /><g
         id="g11"
         transform="matrix(1.4314832,0,0,1.4314832,-4.0834678,-10.430694)"><path
           style="fill:none;fill-opacity:1;stroke:#ffc351;stroke-width:1.51635;stroke-dasharray:none;stroke-opacity:1"
           d="M 29.582293,97.659869 V 45.392683 L 65.993145,35.115426 65.405873,89.144427"
           id="path7" /><circle
           style="fill:#c9ff51;fill-opacity:1;stroke-width:3.54417;stroke-dasharray:28.3534, 3.54417"
           id="path5"
           cx="30.304468"
           cy="102.60951"
           r="10.589229" /><circle
           style="fill:#c9ff51;fill-opacity:1;stroke-width:3.54417;stroke-dasharray:28.3534, 3.54417"
           id="path6"
           cx="63.110306"
           cy="90.982124"
           r="7.6823821" /><path
           style="fill:none;fill-opacity:1;stroke:#ffc351;stroke-width:2.07881;stroke-dasharray:none;stroke-opacity:1"
           d="M 106.10986,111.29583 V 39.641099 l 49.91678,-14.089412 -0.8051,74.070057"
           id="path8" /><circle
           style="fill:#51eaff;fill-opacity:1;stroke-width:4.85881;stroke-dasharray:38.8706, 4.85881"
           id="circle8"
           cx="107.09993"
           cy="118.08144"
           r="14.517105" /><circle
           style="fill:#51ffff;fill-opacity:1;stroke-width:4.85881;stroke-dasharray:38.8706, 4.85881"
           id="circle9"
           cx="152.07446"
           cy="102.1411"
           r="10.532019" /><path
           style="fill:none;fill-opacity:1;stroke:#ffc351;stroke-width:2.07881;stroke-dasharray:none;stroke-opacity:1"
           d="M 37.257239,200.21165 V 128.55692 L 87.174014,114.4675"
           id="path9"
           sodipodi:nodetypes="ccc" /><circle
           style="fill:#465421;fill-opacity:1;stroke-width:4.85881;stroke-dasharray:38.8706, 4.85881"
           id="circle10"
           cx="38.247303"
           cy="206.99727"
           r="14.517105" /><g
           id="g190"
           transform="matrix(0.30006538,0,0,0.30775636,149.63963,204.77341)"><path
             style="fill:#9ef31b;fill-opacity:1;fill-rule:nonzero;stroke:none;stroke-width:1.07391"
             d="m 129.0956,416.84848 c 0,3.38536 -2.75108,6.1339 -6.14897,6.1339 -3.3979,0 -6.15317,-2.74854 -6.15317,-6.1339 0,-3.38957 2.75527,-6.13807 6.15317,-6.13807 3.39789,0 6.14897,2.7485 6.14897,6.13807"
             id="path172" /><path
             style="fill:#9ef31b;fill-opacity:1;fill-rule:nonzero;stroke:none;stroke-width:1.07391"
             d="m 104.48712,361.63504 c -12.302152,0 -12.302152,12.272 -12.302152,12.272 v 24.53557 c 0,0 0,12.27197 12.302152,12.27197 z m 0,0"
             id="path173" /><path
             style="fill:#fdfdff;fill-opacity:1;fill-rule:nonzero;stroke:none;stroke-width:1.07391"
             d="m 104.48712,361.63504 h 99.33693 c 2.64608,0 5.19134,1.03489 7.08559,2.88261 l 4.31773,4.21495 0.84421,-6.68696 c 0.40321,-5.6353 4.23793,-10.44102 9.65608,-12.096 l 11.1639,-3.40633 c 2.11266,-0.64522 4.44791,-0.008 5.83816,1.70526 0.32761,0.41058 0.55861,0.80025 0.58381,1.11868 5.51477,69.06498 -89.60526,61.34733 -138.82641,61.34733 z m 0,0"
             id="path174" /><path
             style="fill:#9ef31b;fill-opacity:1;fill-rule:nonzero;stroke:none;stroke-width:1.07391"
             d="m 178.31674,361.63504 c -9.56366,-1.17734 -12.90694,-12.26779 -36.91482,-12.26779 -24.00784,0 -24.60846,12.26779 -24.60846,12.26779 z m 0,0"
             id="path175" /><path
             style="fill:#9ef31b;fill-opacity:1;fill-rule:nonzero;stroke:none;stroke-width:1.07391"
             d="m 88.98449,379.9236 h 3.200478 v 12.50242 H 88.98449 Z m 0,0"
             id="path176" /><path
             style="fill:#9ef31b;fill-opacity:1;fill-rule:nonzero;stroke:none;stroke-width:1.07391"
             d="m 87.388437,410.71041 c 0.882026,0 1.600251,-0.7123 1.600251,-1.59215 v -45.8869 c 0,-0.87986 -0.718225,-1.59632 -1.600251,-1.59632 -0.882015,0 -1.600228,0.71646 -1.600228,1.59632 v 45.8869 c 0,0.87985 0.718213,1.59215 1.600228,1.59215"
             id="path177" /><path
             style="fill:#9ef31b;fill-opacity:1;fill-rule:nonzero;stroke:none;stroke-width:1.07391"
             d="m 172.16357,398.44261 h -49.21694 c -3.3979,0 -6.15317,-2.74433 -6.15317,-6.1339 0,-3.38957 2.75527,-6.1339 6.15317,-6.1339 h 49.21694 c 3.3979,0 6.15317,2.74433 6.15317,6.1339 0,3.38957 -2.75527,6.1339 -6.15317,6.1339"
             id="path178" /><path
             style="fill:#9ef31b;fill-opacity:1;fill-rule:nonzero;stroke:none;stroke-width:1.07391"
             d="m 85.788209,363.23136 h 3.196281 v 3.67866 h -3.196281 z m 0,0"
             id="path179" /><path
             style="fill:#9ef31b;fill-opacity:1;fill-rule:nonzero;stroke:none;stroke-width:1.07391"
             d="m 85.788209,405.43961 h 3.196281 v 3.67865 h -3.196281 z m 0,0"
             id="path180" /><path
             style="fill:#9ef31b;fill-opacity:1;fill-rule:nonzero;stroke:none;stroke-width:1.07391"
             d="m 129.0956,416.84848 c 0,3.38536 -2.75108,6.1339 -6.14897,6.1339 -3.3979,0 -6.15317,-2.74854 -6.15317,-6.1339 0,-3.38957 2.75527,-6.13807 6.15317,-6.13807 3.39789,0 6.14897,2.7485 6.14897,6.13807"
             id="path181" /><path
             style="fill:#9ef31b;fill-opacity:1;fill-rule:nonzero;stroke:none;stroke-width:1.07391"
             d="m 104.48712,361.63504 c -12.302152,0 -12.302152,12.272 -12.302152,12.272 v 24.53557 c 0,0 0,12.27197 12.302152,12.27197 z m 0,0"
             id="path182" /><path
             style="fill:#ffffff;fill-opacity:1;fill-rule:nonzero;stroke:none;stroke-width:1.07391"
             d="m 104.48712,361.63504 h 99.33693 c 2.64608,0 5.19134,1.03489 7.08559,2.88261 l 4.31773,4.21495 0.84421,-6.68696 c 0.40321,-5.6353 4.23793,-10.44102 9.65608,-12.096 l 11.1639,-3.40633 c 2.11266,-0.64522 4.44791,-0.008 5.83816,1.70526 0.32761,0.41058 0.55861,0.80025 0.58381,1.11868 5.51477,69.06498 -89.60526,61.34733 -138.82641,61.34733 z m 0,0"
             id="path183" /><path
             style="fill:#9ef31b;fill-opacity:1;fill-rule:nonzero;stroke:none;stroke-width:1.07391"
             d="m 178.31674,361.63504 c -9.56366,-1.17734 -12.90694,-12.26779 -36.91482,-12.26779 -24.00784,0 -24.60846,12.26779 -24.60846,12.26779 z m 0,0"
             id="path184" /><path
             style="fill:#9ef31b;fill-opacity:1;fill-rule:nonzero;stroke:none;stroke-width:1.07391"
             d="m 88.98449,379.9236 h 3.200478 v 12.50242 H 88.98449 Z m 0,0"
             id="path185" /><path
             style="fill:#9ef31b;fill-opacity:1;fill-rule:nonzero;stroke:none;stroke-width:1.07391"
             d="m 87.388437,410.71041 c 0.882026,0 1.600251,-0.7123 1.600251,-1.59215 v -45.8869 c 0,-0.87986 -0.718225,-1.59632 -1.600251,-1.59632 -0.882015,0 -1.600228,0.71646 -1.600228,1.59632 v 45.8869 c 0,0.87985 0.718213,1.59215 1.600228,1.59215"
             id="path186" /><path
             style="fill:#9ef31b;fill-opacity:1;fill-rule:nonzero;stroke:none;stroke-width:0.81024"
             d="m 155.87269,398.05881 h -37.10118 c -2.56143,0 -4.63844,-2.07229 -4.63844,-4.6318 0,-2.55953 2.07701,-4.63182 4.63844,-4.63182 h 37.10118 c 2.56145,0 4.63846,2.07229 4.63846,4.63182 0,2.55951 -2.07701,4.6318 -4.63846,4.6318"
             id="path187" /><path
             style="fill:#9ef31b;fill-opacity:1;fill-rule:nonzero;stroke:none;stroke-width:1.07391"
             d="m 85.788209,363.23136 h 3.196281 v 3.67866 h -3.196281 z m 0,0"
             id="path188" /><path
             style="fill:#9ef31b;fill-opacity:1;fill-rule:nonzero;stroke:none;stroke-width:1.07391"
             d="m 85.788209,405.43961 h 3.196281 v 3.67865 h -3.196281 z m 0,0"
             id="path189" /><path
             style="fill:#9ef31b;fill-opacity:1;fill-rule:nonzero;stroke:none;stroke-width:1.07638"
             d="m 129.40013,415.81369 c 0,3.3973 -2.75402,6.15552 -6.15552,6.15552 -3.40151,0 -6.15971,-2.75822 -6.15971,-6.15552 0,-3.40151 2.7582,-6.15972 6.15971,-6.15972 3.4015,0 6.15552,2.75821 6.15552,6.15972"
             id="path190" /></g></g></g><g
       id="g25"
       transform="matrix(1.632936,0.21836787,-0.21836787,1.632936,-256.93854,-391.81474)"><circle
         style="opacity:1;fill:#95986f;fill-opacity:1;stroke:none;stroke-width:0.907037"
         id="path11"
         cx="447.66119"
         cy="277.98001"
         r="21.599859" /><path
         style="opacity:1;fill:none;fill-opacity:1;stroke:#000000;stroke-width:1.5;stroke-linecap:round;stroke-linejoin:round;stroke-dasharray:none;stroke-opacity:1"
         d="m 471.36069,453.80562 c 0,0 33.45141,-8.01728 15.61987,4.56155 -17.83153,12.57884 -55.56803,10.36717 -46.30669,16.31102 9.26134,5.94384 28.33693,5.94384 28.33693,5.94384"
         id="path16"
         sodipodi:nodetypes="cssc" /><path
         style="opacity:1;fill:#838383;fill-opacity:1;stroke:none;stroke-width:1.1"
         d="m 388.14687,461.13175 24.32829,-216.74298 c 0,0 99.07042,126.76068 91.78402,190.20302 -4.53006,39.44299 -116.11231,26.53996 -116.11231,26.53996 z"
         id="path2"
         sodipodi:nodetypes="ccsc" /><circle
         style="opacity:1;fill:#aa5da8;fill-opacity:1;stroke:none;stroke-width:1.1"
         id="path10"
         cx="413.94"
         cy="250.90532"
         r="12.804283" /><circle
         style="opacity:1;fill:#afb192;fill-opacity:1;stroke:none;stroke-width:1.18844"
         id="circle11"
         cx="476.39752"
         cy="298.11502"
         r="28.30114" /><circle
         style="opacity:1;fill:#ffffff;fill-opacity:1;stroke:none;stroke-width:1.35738"
         id="path12"
         cx="436.05402"
         cy="297.59082"
         r="5.4275565" /><path
         style="opacity:1;fill:none;fill-opacity:1;stroke:#000000;stroke-width:0.562131;stroke-dasharray:none;stroke-opacity:1"
         d="m 412.23069,267.86592 -7.29142,20.83024"
         id="path13" /><path
         style="opacity:1;fill:none;fill-opacity:1;stroke:#000000;stroke-width:0.562131;stroke-dasharray:none;stroke-opacity:1"
         d="m 421.36076,266.70037 9.80316,18.40203"
         id="path14"
         sodipodi:nodetypes="cc" /><path
         style="opacity:1;fill:none;fill-opacity:1;stroke:#000000;stroke-width:0.562131;stroke-dasharray:none;stroke-opacity:1"
         d="m 416.89285,266.99176 3.78121,24.71537"
         id="path15"
         sodipodi:nodetypes="cc" /><path
         style="opacity:1;fill:none;fill-opacity:1;stroke:#000000;stroke-width:2.68568;stroke-linecap:round;stroke-linejoin:round;stroke-dasharray:none;stroke-opacity:1"
         d="m 435.97891,359.90431 -33.19842,1.90088 -17.16891,-1.30061"
         id="path17"
         sodipodi:nodetypes="ccc" /><path
         style="opacity:1;fill:none;fill-opacity:1;stroke:#000000;stroke-width:2.68568;stroke-linecap:round;stroke-linejoin:round;stroke-dasharray:none;stroke-opacity:1"
         d="m 381.57943,355.04821 4.79911,5.33153 -7.72521,-4.79397"
         id="path18"
         sodipodi:nodetypes="ccc" /><path
         style="opacity:1;fill:none;fill-opacity:1;stroke:#000000;stroke-width:2.68568;stroke-linecap:round;stroke-linejoin:round;stroke-dasharray:none;stroke-opacity:1"
         d="m 386.71691,360.67788 -7.95648,-1.67893"
         id="path19"
         sodipodi:nodetypes="cc" /><g
         id="g22"
         transform="matrix(1.1956575,-0.16534349,0.16534349,1.1956575,-148.40842,-25.357401)"><path
           style="opacity:1;fill:none;fill-opacity:1;stroke:#000000;stroke-width:2.68568;stroke-linecap:round;stroke-linejoin:round;stroke-dasharray:none;stroke-opacity:1"
           d="m 394.34681,462.99401 9.99756,1.04996 -17.16891,-1.30061"
           id="path20"
           sodipodi:nodetypes="ccc" /><path
           style="opacity:1;fill:none;fill-opacity:1;stroke:#000000;stroke-width:2.68568;stroke-linecap:round;stroke-linejoin:round;stroke-dasharray:none;stroke-opacity:1"
           d="m 383.14331,457.28699 4.79911,5.33153 -7.72521,-4.79397"
           id="path21"
           sodipodi:nodetypes="ccc" /><path
           style="opacity:1;fill:none;fill-opacity:1;stroke:#000000;stroke-width:2.68568;stroke-linecap:round;stroke-linejoin:round;stroke-dasharray:none;stroke-opacity:1"
           d="m 388.28079,462.91666 -7.95648,-1.67893"
           id="path22"
           sodipodi:nodetypes="cc" /></g></g></g></svg>
